<?xml version="1.0" encoding="UTF-8"?>
<svg id="_レイヤー_1" data-name="レイヤー 1" xmlns="http://www.w3.org/2000/svg" viewBox="0 0 64 64">
  <path d="M21.479,24.357c0-.805.141-1.516.422-2.135.28-.617.655-1.133,1.123-1.545.45-.395.96-.693,1.531-.898.571-.207,1.147-.311,1.729-.311s1.156.104,1.728.311c.571.205,1.091.504,1.56.898.449.412.814.928,1.096,1.545.281.619.421,1.33.421,2.135v10.564c0,.505-.057.967-.173,1.387-.119.431.028.887.376,1.169l.25.202c.493.399.563,1.125.155,1.61h0c-.399.476-1.106.542-1.587.15l-.17-.139c-.36-.294-.864-.337-1.267-.105-.713.41-1.509.615-2.387.615-.581,0-1.157-.104-1.729-.309-.571-.207-1.081-.516-1.531-.928-.468-.393-.843-.889-1.123-1.488-.281-.6-.422-1.32-.422-2.164v-10.564ZM24.345,34.922c0,.693.191,1.203.575,1.531s.839.492,1.363.492c.262,0,.468-.037.618-.113l-.39-.313c-.496-.398-.567-1.126-.159-1.613l.002-.003c.397-.473,1.099-.542,1.581-.155l.286.23v-10.621c0-.691-.192-1.203-.576-1.531-.384-.326-.839-.49-1.362-.49s-.979.164-1.363.49c-.384.328-.575.84-.575,1.531v10.564Z"/>
  <path d="M32.632,38.261l3.961-17.735c.116-.518.576-.887,1.107-.887h.57c.531,0,.991.369,1.107.887l3.961,17.735c.158.709-.381,1.382-1.107,1.382h-.517c-.542,0-1.009-.384-1.113-.916l-.484-2.467c-.104-.532-.571-.916-1.113-.916h-2.038c-.542,0-1.009.384-1.113.916l-.484,2.467c-.104.532-.571.916-1.113.916h-.517c-.726,0-1.265-.673-1.107-1.382ZM38.029,32.646c.713,0,1.249-.65,1.114-1.35l-1.143-5.898h-.056l-1.143,5.898c-.136.7.401,1.35,1.114,1.35h.115Z"/>
</svg>