<?xml version="1.0" encoding="UTF-8"?>
<svg id="_レイヤー_1" data-name="レイヤー 1" xmlns="http://www.w3.org/2000/svg" viewBox="0 0 64 64">
  <path d="M47.033,26.567h-28.585l27.815-14.834c.228-.122.314-.405.193-.633s-.405-.314-.633-.193l-29.483,15.723c-1.45.291-2.542,1.57-2.542,3.105v12.376c0,1.75,1.419,3.169,3.169,3.169h30.067c1.75,0,3.169-1.419,3.169-3.169v-12.376c0-1.75-1.419-3.169-3.169-3.169ZM23.369,42.056c-3.387,0-6.133-2.746-6.133-6.133s2.746-6.133,6.133-6.133,6.133,2.746,6.133,6.133-2.746,6.133-6.133,6.133ZM46.893,40.828h-14.872c-.291,0-.526-.236-.526-.526s.236-.526.526-.526h14.872c.291,0,.526.236.526.526s-.236.526-.526.526ZM46.893,38.652h-14.872c-.291,0-.526-.236-.526-.526s.236-.526.526-.526h14.872c.291,0,.526.236.526.526s-.236.526-.526.526ZM46.893,36.476h-14.872c-.291,0-.526-.236-.526-.526s.236-.526.526-.526h14.872c.291,0,.526.236.526.526s-.236.526-.526.526ZM46.893,34.301h-14.872c-.291,0-.526-.236-.526-.526s.236-.526.526-.526h14.872c.291,0,.526.236.526.526s-.236.526-.526.526ZM46.893,32.125h-14.872c-.291,0-.526-.236-.526-.526s.236-.526.526-.526h14.872c.291,0,.526.236.526.526s-.236.526-.526.526Z"/>
</svg>